<svg width="84" height="16" viewBox="0 0 84 16" fill="none" xmlns="http://www.w3.org/2000/svg">
<path d="M7.37438 8.59961C7.38655 9.92633 6.31891 11.0114 4.99219 11.0218C6.31891 11.0096 7.40394 12.0773 7.41437 13.404C7.4022 12.0773 8.46984 10.9922 9.79657 10.9818C8.46984 10.994 7.38481 9.92633 7.37438 8.59961Z" fill="#242328"/>
<path d="M12.5988 0.121094H1.60247C0.89759 0.121094 0.326172 0.692123 0.326172 1.39652C0.326172 2.10092 0.89759 2.67195 1.60247 2.67195H12.5988C13.3037 2.67195 13.8751 2.10092 13.8751 1.39652C13.8751 0.692123 13.3037 0.121094 12.5988 0.121094Z" fill="#242328"/>
<path d="M1.60264 15.1985C0.9158 15.1985 0.359375 14.642 0.359375 13.9552V11.8999C0.359375 7.91451 3.60055 4.67334 7.5842 4.67334H11.2514C11.9382 4.67334 12.4947 5.22976 12.4947 5.9166C12.4947 6.60344 11.9382 7.15986 11.2514 7.15986H7.5842C4.97248 7.15986 2.84764 9.28471 2.84764 11.8964V13.9517C2.84764 14.6386 2.29121 15.195 1.60438 15.195L1.60264 15.1985Z" fill="#242328"/>
<path d="M21.1733 12.1599V3.43264H26.7642V4.75792H22.7543V7.12724H26.3807V8.45253H22.7543V12.1599H21.1733ZM28.1364 12.1599V5.61446H29.679V12.1599H28.1364ZM28.9119 4.68548C28.6676 4.68548 28.4574 4.60451 28.2812 4.44258C28.1051 4.27781 28.017 4.08037 28.017 3.85025C28.017 3.6173 28.1051 3.41985 28.2812 3.25792C28.4574 3.09315 28.6676 3.01076 28.9119 3.01076C29.1591 3.01076 29.3693 3.09315 29.5426 3.25792C29.7188 3.41985 29.8068 3.6173 29.8068 3.85025C29.8068 4.08037 29.7188 4.27781 29.5426 4.44258C29.3693 4.60451 29.1591 4.68548 28.9119 4.68548ZM34.163 12.2878C33.5067 12.2878 32.94 12.1514 32.4627 11.8787C31.9883 11.6031 31.6232 11.2139 31.3675 10.711C31.1119 10.2054 30.984 9.6102 30.984 8.92554C30.984 8.25224 31.1119 7.66133 31.3675 7.15281C31.6261 6.64145 31.9869 6.24372 32.4499 5.95963C32.913 5.6727 33.457 5.52923 34.082 5.52923C34.4854 5.52923 34.8661 5.59457 35.2241 5.72525C35.5849 5.85309 35.9031 6.05196 36.1786 6.32184C36.457 6.59173 36.6758 6.93548 36.8349 7.35309C36.994 7.76787 37.0735 8.26218 37.0735 8.83605V9.30906H31.7085V8.26929H35.5948C35.592 7.97383 35.5281 7.71105 35.4031 7.48093C35.2781 7.24798 35.1033 7.06474 34.8789 6.93122C34.6573 6.7977 34.3988 6.73093 34.1033 6.73093C33.788 6.73093 33.511 6.80764 33.2724 6.96105C33.0337 7.11162 32.8477 7.31048 32.7141 7.55764C32.5835 7.80196 32.5167 8.07042 32.5138 8.36304V9.27071C32.5138 9.65139 32.5835 9.97809 32.7227 10.2508C32.8619 10.5207 33.0565 10.7281 33.3065 10.873C33.5565 11.015 33.8491 11.086 34.1843 11.086C34.4087 11.086 34.6119 11.0548 34.7937 10.9923C34.9755 10.927 35.1332 10.8318 35.2667 10.7068C35.4002 10.5818 35.5011 10.427 35.5692 10.2423L37.0096 10.4042C36.9187 10.7849 36.7454 11.1173 36.4897 11.4014C36.2369 11.6826 35.913 11.9014 35.5181 12.0576C35.1232 12.211 34.6715 12.2878 34.163 12.2878ZM39.9212 3.43264V12.1599H38.3786V3.43264H39.9212ZM43.9364 12.275C43.4222 12.275 42.962 12.1429 42.5558 11.8787C42.1495 11.6145 41.8285 11.2309 41.5927 10.7281C41.3569 10.2253 41.239 9.61446 41.239 8.89571C41.239 8.16843 41.3583 7.5548 41.5969 7.0548C41.8384 6.55196 42.1637 6.1727 42.5728 5.91701C42.9819 5.65849 43.4379 5.52923 43.9407 5.52923C44.3242 5.52923 44.6396 5.59457 44.8867 5.72525C45.1339 5.85309 45.3299 6.00792 45.4748 6.18974C45.6197 6.36872 45.7319 6.53775 45.8114 6.69684H45.8754V3.43264H47.4222V12.1599H45.9052V11.1287H45.8114C45.7319 11.2878 45.6168 11.4568 45.4663 11.6358C45.3157 11.8119 45.1168 11.9625 44.8697 12.0875C44.6225 12.2125 44.3114 12.275 43.9364 12.275ZM44.3668 11.0093C44.6935 11.0093 44.9719 10.9213 45.2021 10.7451C45.4322 10.5662 45.6069 10.3176 45.7262 9.9994C45.8455 9.68122 45.9052 9.31048 45.9052 8.88718C45.9052 8.46389 45.8455 8.09599 45.7262 7.78349C45.6097 7.47099 45.4364 7.22809 45.2063 7.0548C44.979 6.8815 44.6992 6.79485 44.3668 6.79485C44.0231 6.79485 43.7362 6.88434 43.506 7.06332C43.2759 7.2423 43.1026 7.48946 42.9862 7.8048C42.8697 8.12014 42.8114 8.48093 42.8114 8.88718C42.8114 9.29628 42.8697 9.66133 42.9862 9.98236C43.1055 10.3005 43.2802 10.552 43.5103 10.7366C43.7433 10.9184 44.0288 11.0093 44.3668 11.0093ZM56.6044 6.37724H55.0107C54.9652 6.11588 54.8814 5.88434 54.7592 5.68264C54.6371 5.47809 54.4851 5.3048 54.3033 5.16275C54.1214 5.02071 53.9141 4.91417 53.6811 4.84315C53.451 4.76929 53.2024 4.73236 52.9354 4.73236C52.4609 4.73236 52.0405 4.85167 51.674 5.09031C51.3075 5.3261 51.0206 5.6727 50.8132 6.13008C50.6058 6.58463 50.5021 7.14003 50.5021 7.79628C50.5021 8.46389 50.6058 9.02639 50.8132 9.48378C51.0234 9.93832 51.3104 10.2821 51.674 10.515C52.0405 10.7451 52.4595 10.8602 52.9311 10.8602C53.1925 10.8602 53.4368 10.8261 53.6641 10.7579C53.8942 10.6869 54.1001 10.5832 54.282 10.4468C54.4666 10.3105 54.6214 10.1429 54.7464 9.944C54.8743 9.74514 54.9624 9.51787 55.0107 9.26218L56.6044 9.27071C56.5447 9.68548 56.4155 10.0747 56.2166 10.4383C56.0206 10.802 55.7635 11.123 55.4453 11.4014C55.1271 11.677 54.755 11.8929 54.3288 12.0491C53.9027 12.2025 53.4297 12.2792 52.9098 12.2792C52.1428 12.2792 51.4581 12.1017 50.8558 11.7466C50.2536 11.3914 49.7791 10.8787 49.4325 10.2082C49.0859 9.53775 48.9126 8.73378 48.9126 7.79628C48.9126 6.85593 49.0874 6.05196 49.4368 5.38434C49.7862 4.71389 50.2621 4.20111 50.8643 3.84599C51.4666 3.49088 52.1484 3.31332 52.9098 3.31332C53.3956 3.31332 53.8473 3.3815 54.2649 3.51787C54.6825 3.65423 55.0547 3.85451 55.3814 4.11872C55.7081 4.38008 55.9766 4.70111 56.1868 5.08179C56.3999 5.45963 56.5391 5.89145 56.6044 6.37724ZM59.8675 12.292C59.4528 12.292 59.0792 12.2182 58.7468 12.0704C58.4173 11.9199 58.1559 11.6983 57.9627 11.4057C57.7724 11.113 57.6772 10.7522 57.6772 10.3233C57.6772 9.95395 57.7454 9.64855 57.8817 9.40707C58.0181 9.16559 58.2042 8.97241 58.44 8.82753C58.6758 8.68264 58.9414 8.57326 59.2369 8.4994C59.5352 8.4227 59.8434 8.3673 60.1616 8.33321C60.5451 8.29343 60.8562 8.25792 61.0948 8.22667C61.3335 8.19258 61.5067 8.14145 61.6147 8.07326C61.7255 8.00224 61.7809 7.89287 61.7809 7.74514V7.71957C61.7809 7.39855 61.6857 7.14997 61.4954 6.97383C61.305 6.7977 61.0309 6.70963 60.6729 6.70963C60.2951 6.70963 59.9954 6.79201 59.7738 6.95679C59.555 7.12156 59.4073 7.31616 59.3306 7.54059L57.8903 7.33605C58.0039 6.93832 58.1914 6.60593 58.4528 6.33889C58.7141 6.069 59.0337 5.8673 59.4116 5.73378C59.7894 5.59741 60.207 5.52923 60.6644 5.52923C60.9798 5.52923 61.2937 5.56616 61.6062 5.64003C61.9187 5.71389 62.2042 5.83605 62.4627 6.0065C62.7212 6.17412 62.9286 6.40281 63.0849 6.69258C63.244 6.98236 63.3235 7.34457 63.3235 7.77923V12.1599H61.8406V11.2608H61.7894C61.6957 11.4426 61.5636 11.613 61.3931 11.7721C61.2255 11.9284 61.0138 12.0548 60.7582 12.1514C60.5053 12.2451 60.2085 12.292 59.8675 12.292ZM60.2681 11.1585C60.5778 11.1585 60.8462 11.0974 61.0735 10.9753C61.3008 10.8503 61.4755 10.6855 61.5977 10.4809C61.7227 10.2764 61.7852 10.0534 61.7852 9.8119V9.04059C61.7369 9.08037 61.6545 9.1173 61.538 9.15139C61.4244 9.18548 61.2965 9.21531 61.1545 9.24088C61.0124 9.26645 60.8718 9.28917 60.7326 9.30906C60.5934 9.32895 60.4727 9.34599 60.3704 9.3602C60.1403 9.39145 59.9343 9.44258 59.7525 9.51361C59.5707 9.58463 59.4272 9.68406 59.3221 9.8119C59.217 9.9369 59.1644 10.0988 59.1644 10.2977C59.1644 10.5818 59.2681 10.7963 59.4755 10.9412C59.6829 11.086 59.9471 11.1585 60.2681 11.1585ZM64.8746 12.1599V5.61446H66.3491V6.72667H66.4258C66.5621 6.35167 66.788 6.05906 67.1033 5.84883C67.4187 5.63576 67.7951 5.52923 68.2326 5.52923C68.6758 5.52923 69.0494 5.63718 69.3533 5.85309C69.6602 6.06616 69.8761 6.35735 70.0011 6.72667H70.0692C70.2141 6.36304 70.4585 6.07326 70.8022 5.85736C71.1488 5.63861 71.5593 5.52923 72.0337 5.52923C72.636 5.52923 73.1275 5.71957 73.5082 6.10025C73.8888 6.48093 74.0792 7.03633 74.0792 7.76645V12.1599H72.5323V8.00508C72.5323 7.59883 72.4244 7.30196 72.2085 7.11446C71.9925 6.92412 71.7283 6.82895 71.4158 6.82895C71.0437 6.82895 70.7525 6.94542 70.5423 7.17838C70.3349 7.40849 70.2312 7.70821 70.2312 8.07753V12.1599H68.7184V7.94116C68.7184 7.60309 68.6161 7.33321 68.4116 7.1315C68.2099 6.9298 67.9457 6.82895 67.619 6.82895C67.3974 6.82895 67.1957 6.88576 67.0138 6.9994C66.832 7.1102 66.6871 7.26787 66.5792 7.47241C66.4712 7.67412 66.4173 7.90991 66.4173 8.1798V12.1599H64.8746ZM75.6442 14.6145V5.61446H77.1612V6.69684H77.2507C77.3303 6.53775 77.4425 6.36872 77.5874 6.18974C77.7322 6.00792 77.9283 5.85309 78.1754 5.72525C78.4226 5.59457 78.7379 5.52923 79.1214 5.52923C79.6271 5.52923 80.0831 5.65849 80.4893 5.91701C80.8984 6.1727 81.2223 6.55196 81.4609 7.0548C81.7024 7.5548 81.8232 8.16843 81.8232 8.89571C81.8232 9.61446 81.7053 10.2253 81.4695 10.7281C81.2337 11.2309 80.9126 11.6145 80.5064 11.8787C80.1001 12.1429 79.6399 12.275 79.1257 12.275C78.7507 12.275 78.4396 12.2125 78.1925 12.0875C77.9453 11.9625 77.7464 11.8119 77.5959 11.6358C77.4482 11.4568 77.3331 11.2878 77.2507 11.1287H77.1868V14.6145H75.6442ZM77.157 8.88718C77.157 9.31048 77.2166 9.68122 77.3359 9.9994C77.4581 10.3176 77.6328 10.5662 77.8601 10.7451C78.0902 10.9213 78.3686 11.0093 78.6953 11.0093C79.0362 11.0093 79.3217 10.9184 79.5518 10.7366C79.782 10.552 79.9553 10.3005 80.0717 9.98236C80.1911 9.66133 80.2507 9.29628 80.2507 8.88718C80.2507 8.48093 80.1925 8.12014 80.076 7.8048C79.9595 7.48946 79.7862 7.2423 79.5561 7.06332C79.326 6.88434 79.0391 6.79485 78.6953 6.79485C78.3658 6.79485 78.0859 6.8815 77.8558 7.0548C77.6257 7.22809 77.451 7.47099 77.3317 7.78349C77.2152 8.09599 77.157 8.46389 77.157 8.88718Z" fill="#242328"/>
</svg>
