<svg width="84" height="16" viewBox="0 0 84 16" fill="none" xmlns="http://www.w3.org/2000/svg">
<path d="M7.37438 8.78711C7.38655 10.1138 6.31891 11.1989 4.99219 11.2093C6.31891 11.1971 7.40394 12.2648 7.41437 13.5915C7.4022 12.2648 8.46984 11.1797 9.79657 11.1693C8.46984 11.1815 7.38481 10.1138 7.37438 8.78711Z" fill="white"/>
<path d="M12.5988 0.308594H1.60247C0.89759 0.308594 0.326172 0.879623 0.326172 1.58402C0.326172 2.28842 0.89759 2.85945 1.60247 2.85945H12.5988C13.3037 2.85945 13.8751 2.28842 13.8751 1.58402C13.8751 0.879623 13.3037 0.308594 12.5988 0.308594Z" fill="white"/>
<path d="M1.60264 15.386C0.9158 15.386 0.359375 14.8295 0.359375 14.1427V12.0874C0.359375 8.10201 3.60055 4.86084 7.5842 4.86084H11.2514C11.9382 4.86084 12.4947 5.41726 12.4947 6.1041C12.4947 6.79094 11.9382 7.34736 11.2514 7.34736H7.5842C4.97248 7.34736 2.84764 9.47221 2.84764 12.0839V14.1392C2.84764 14.8261 2.29121 15.3825 1.60438 15.3825L1.60264 15.386Z" fill="white"/>
<path d="M21.1733 12.3474V3.62014H26.7642V4.94542H22.7543V7.31474H26.3807V8.64003H22.7543V12.3474H21.1733ZM28.1364 12.3474V5.80196H29.679V12.3474H28.1364ZM28.9119 4.87298C28.6676 4.87298 28.4574 4.79201 28.2812 4.63008C28.1051 4.46531 28.017 4.26787 28.017 4.03775C28.017 3.8048 28.1051 3.60735 28.2812 3.44542C28.4574 3.28065 28.6676 3.19826 28.9119 3.19826C29.1591 3.19826 29.3693 3.28065 29.5426 3.44542C29.7188 3.60735 29.8068 3.8048 29.8068 4.03775C29.8068 4.26787 29.7188 4.46531 29.5426 4.63008C29.3693 4.79201 29.1591 4.87298 28.9119 4.87298ZM34.163 12.4753C33.5067 12.4753 32.94 12.3389 32.4627 12.0662C31.9883 11.7906 31.6232 11.4014 31.3675 10.8985C31.1119 10.3929 30.984 9.7977 30.984 9.11304C30.984 8.43974 31.1119 7.84883 31.3675 7.34031C31.6261 6.82895 31.9869 6.43122 32.4499 6.14713C32.913 5.8602 33.457 5.71673 34.082 5.71673C34.4854 5.71673 34.8661 5.78207 35.2241 5.91275C35.5849 6.04059 35.9031 6.23946 36.1786 6.50934C36.457 6.77923 36.6758 7.12298 36.8349 7.54059C36.994 7.95537 37.0735 8.44968 37.0735 9.02355V9.49656H31.7085V8.45679H35.5948C35.592 8.16133 35.5281 7.89855 35.4031 7.66843C35.2781 7.43548 35.1033 7.25224 34.8789 7.11872C34.6573 6.9852 34.3988 6.91843 34.1033 6.91843C33.788 6.91843 33.511 6.99514 33.2724 7.14855C33.0337 7.29912 32.8477 7.49798 32.7141 7.74514C32.5835 7.98946 32.5167 8.25792 32.5138 8.55054V9.45821C32.5138 9.83889 32.5835 10.1656 32.7227 10.4383C32.8619 10.7082 33.0565 10.9156 33.3065 11.0605C33.5565 11.2025 33.8491 11.2735 34.1843 11.2735C34.4087 11.2735 34.6119 11.2423 34.7937 11.1798C34.9755 11.1145 35.1332 11.0193 35.2667 10.8943C35.4002 10.7693 35.5011 10.6145 35.5692 10.4298L37.0096 10.5917C36.9187 10.9724 36.7454 11.3048 36.4897 11.5889C36.2369 11.8701 35.913 12.0889 35.5181 12.2451C35.1232 12.3985 34.6715 12.4753 34.163 12.4753ZM39.9212 3.62014V12.3474H38.3786V3.62014H39.9212ZM43.9364 12.4625C43.4222 12.4625 42.962 12.3304 42.5558 12.0662C42.1495 11.802 41.8285 11.4184 41.5927 10.9156C41.3569 10.4128 41.239 9.80196 41.239 9.08321C41.239 8.35593 41.3583 7.7423 41.5969 7.2423C41.8384 6.73946 42.1637 6.3602 42.5728 6.10451C42.9819 5.84599 43.4379 5.71673 43.9407 5.71673C44.3242 5.71673 44.6396 5.78207 44.8867 5.91275C45.1339 6.04059 45.3299 6.19542 45.4748 6.37724C45.6197 6.55622 45.7319 6.72525 45.8114 6.88434H45.8754V3.62014H47.4222V12.3474H45.9052V11.3162H45.8114C45.7319 11.4753 45.6168 11.6443 45.4663 11.8233C45.3157 11.9994 45.1168 12.15 44.8697 12.275C44.6225 12.4 44.3114 12.4625 43.9364 12.4625ZM44.3668 11.1968C44.6935 11.1968 44.9719 11.1088 45.2021 10.9326C45.4322 10.7537 45.6069 10.5051 45.7262 10.1869C45.8455 9.86872 45.9052 9.49798 45.9052 9.07468C45.9052 8.65139 45.8455 8.28349 45.7262 7.97099C45.6097 7.65849 45.4364 7.41559 45.2063 7.2423C44.979 7.069 44.6992 6.98235 44.3668 6.98235C44.0231 6.98235 43.7362 7.07184 43.506 7.25082C43.2759 7.4298 43.1026 7.67696 42.9862 7.9923C42.8697 8.30764 42.8114 8.66843 42.8114 9.07468C42.8114 9.48378 42.8697 9.84883 42.9862 10.1699C43.1055 10.488 43.2802 10.7395 43.5103 10.9241C43.7433 11.1059 44.0288 11.1968 44.3668 11.1968ZM56.6044 6.56474H55.0107C54.9652 6.30338 54.8814 6.07184 54.7592 5.87014C54.6371 5.66559 54.4851 5.4923 54.3033 5.35025C54.1214 5.20821 53.9141 5.10167 53.6811 5.03065C53.451 4.95679 53.2024 4.91986 52.9354 4.91986C52.4609 4.91986 52.0405 5.03917 51.674 5.27781C51.3075 5.5136 51.0206 5.8602 50.8132 6.31758C50.6058 6.77213 50.5021 7.32753 50.5021 7.98378C50.5021 8.65139 50.6058 9.21389 50.8132 9.67128C51.0234 10.1258 51.3104 10.4696 51.674 10.7025C52.0405 10.9326 52.4595 11.0477 52.9311 11.0477C53.1925 11.0477 53.4368 11.0136 53.6641 10.9454C53.8942 10.8744 54.1001 10.7707 54.282 10.6343C54.4666 10.498 54.6214 10.3304 54.7464 10.1315C54.8743 9.93264 54.9624 9.70537 55.0107 9.44968L56.6044 9.45821C56.5447 9.87298 56.4155 10.2622 56.2166 10.6258C56.0206 10.9895 55.7635 11.3105 55.4453 11.5889C55.1271 11.8645 54.755 12.0804 54.3288 12.2366C53.9027 12.39 53.4297 12.4667 52.9098 12.4667C52.1428 12.4667 51.4581 12.2892 50.8558 11.9341C50.2536 11.5789 49.7791 11.0662 49.4325 10.3957C49.0859 9.72525 48.9126 8.92128 48.9126 7.98378C48.9126 7.04343 49.0874 6.23946 49.4368 5.57184C49.7862 4.90139 50.2621 4.38861 50.8643 4.03349C51.4666 3.67838 52.1484 3.50082 52.9098 3.50082C53.3956 3.50082 53.8473 3.569 54.2649 3.70537C54.6825 3.84173 55.0547 4.04201 55.3814 4.30622C55.7081 4.56758 55.9766 4.88861 56.1868 5.26929C56.3999 5.64713 56.5391 6.07895 56.6044 6.56474ZM59.8675 12.4795C59.4528 12.4795 59.0792 12.4057 58.7468 12.2579C58.4173 12.1074 58.1559 11.8858 57.9627 11.5932C57.7724 11.3005 57.6772 10.9397 57.6772 10.5108C57.6772 10.1414 57.7454 9.83605 57.8817 9.59457C58.0181 9.35309 58.2042 9.15991 58.44 9.01503C58.6758 8.87014 58.9414 8.76076 59.2369 8.6869C59.5352 8.6102 59.8434 8.5548 60.1616 8.52071C60.5451 8.48093 60.8562 8.44542 61.0948 8.41417C61.3335 8.38008 61.5067 8.32895 61.6147 8.26076C61.7255 8.18974 61.7809 8.08037 61.7809 7.93264V7.90707C61.7809 7.58605 61.6857 7.33747 61.4954 7.16133C61.305 6.9852 61.0309 6.89713 60.6729 6.89713C60.2951 6.89713 59.9954 6.97951 59.7738 7.14429C59.555 7.30906 59.4073 7.50366 59.3306 7.72809L57.8903 7.52355C58.0039 7.12582 58.1914 6.79343 58.4528 6.52639C58.7141 6.2565 59.0337 6.0548 59.4116 5.92128C59.7894 5.78491 60.207 5.71673 60.6644 5.71673C60.9798 5.71673 61.2937 5.75366 61.6062 5.82753C61.9187 5.90139 62.2042 6.02355 62.4627 6.194C62.7212 6.36162 62.9286 6.59031 63.0849 6.88008C63.244 7.16986 63.3235 7.53207 63.3235 7.96673V12.3474H61.8406V11.4483H61.7894C61.6957 11.6301 61.5636 11.8005 61.3931 11.9596C61.2255 12.1159 61.0138 12.2423 60.7582 12.3389C60.5053 12.4326 60.2085 12.4795 59.8675 12.4795ZM60.2681 11.346C60.5778 11.346 60.8462 11.2849 61.0735 11.1628C61.3008 11.0378 61.4755 10.873 61.5977 10.6684C61.7227 10.4639 61.7852 10.2409 61.7852 9.9994V9.22809C61.7369 9.26787 61.6545 9.3048 61.538 9.33889C61.4244 9.37298 61.2965 9.40281 61.1545 9.42838C61.0124 9.45395 60.8718 9.47667 60.7326 9.49656C60.5934 9.51645 60.4727 9.53349 60.3704 9.5477C60.1403 9.57895 59.9343 9.63008 59.7525 9.70111C59.5707 9.77213 59.4272 9.87156 59.3221 9.9994C59.217 10.1244 59.1644 10.2863 59.1644 10.4852C59.1644 10.7693 59.2681 10.9838 59.4755 11.1287C59.6829 11.2735 59.9471 11.346 60.2681 11.346ZM64.8746 12.3474V5.80196H66.3491V6.91417H66.4258C66.5621 6.53917 66.788 6.24656 67.1033 6.03633C67.4187 5.82326 67.7951 5.71673 68.2326 5.71673C68.6758 5.71673 69.0494 5.82468 69.3533 6.04059C69.6602 6.25366 69.8761 6.54485 70.0011 6.91417H70.0692C70.2141 6.55054 70.4585 6.26076 70.8022 6.04486C71.1488 5.82611 71.5593 5.71673 72.0337 5.71673C72.636 5.71673 73.1275 5.90707 73.5082 6.28775C73.8888 6.66843 74.0792 7.22383 74.0792 7.95395V12.3474H72.5323V8.19258C72.5323 7.78633 72.4244 7.48946 72.2085 7.30196C71.9925 7.11162 71.7283 7.01645 71.4158 7.01645C71.0437 7.01645 70.7525 7.13292 70.5423 7.36588C70.3349 7.59599 70.2312 7.89571 70.2312 8.26503V12.3474H68.7184V8.12866C68.7184 7.79059 68.6161 7.52071 68.4116 7.319C68.2099 7.1173 67.9457 7.01645 67.619 7.01645C67.3974 7.01645 67.1957 7.07326 67.0138 7.1869C66.832 7.2977 66.6871 7.45537 66.5792 7.65991C66.4712 7.86162 66.4173 8.09741 66.4173 8.3673V12.3474H64.8746ZM75.6442 14.802V5.80196H77.1612V6.88434H77.2507C77.3303 6.72525 77.4425 6.55622 77.5874 6.37724C77.7322 6.19542 77.9283 6.04059 78.1754 5.91275C78.4226 5.78207 78.7379 5.71673 79.1214 5.71673C79.6271 5.71673 80.0831 5.84599 80.4893 6.10451C80.8984 6.3602 81.2223 6.73946 81.4609 7.2423C81.7024 7.7423 81.8232 8.35593 81.8232 9.08321C81.8232 9.80196 81.7053 10.4128 81.4695 10.9156C81.2337 11.4184 80.9126 11.802 80.5064 12.0662C80.1001 12.3304 79.6399 12.4625 79.1257 12.4625C78.7507 12.4625 78.4396 12.4 78.1925 12.275C77.9453 12.15 77.7464 11.9994 77.5959 11.8233C77.4482 11.6443 77.3331 11.4753 77.2507 11.3162H77.1868V14.802H75.6442ZM77.157 9.07468C77.157 9.49798 77.2166 9.86872 77.3359 10.1869C77.4581 10.5051 77.6328 10.7537 77.8601 10.9326C78.0902 11.1088 78.3686 11.1968 78.6953 11.1968C79.0362 11.1968 79.3217 11.1059 79.5518 10.9241C79.782 10.7395 79.9553 10.488 80.0717 10.1699C80.1911 9.84883 80.2507 9.48378 80.2507 9.07468C80.2507 8.66843 80.1925 8.30764 80.076 7.9923C79.9595 7.67696 79.7862 7.4298 79.5561 7.25082C79.326 7.07184 79.0391 6.98235 78.6953 6.98235C78.3658 6.98235 78.0859 7.069 77.8558 7.2423C77.6257 7.41559 77.451 7.65849 77.3317 7.97099C77.2152 8.28349 77.157 8.65139 77.157 9.07468Z" fill="white"/>
</svg>
